<svg id="Capa_1" data-name="Capa 1" xmlns="http://www.w3.org/2000/svg" viewBox="0 0 64.12 51.08"><defs><style>.cls-1{fill:#fff;}.cls-2{fill:none;stroke:#fff;stroke-miterlimit:10;stroke-width:3px;}</style></defs><title>COMPRA BLANC</title><path class="cls-1" d="M609.23,292.89c-8.68.52-17.37.79-26.06,1-4.34.08-8.69.21-13,.26l-3.21.05a1.55,1.55,0,0,0-1.34.95,1,1,0,0,0-.07.2l-.06.3-.16.8-.31,1.6-.63,3.19-2.58,12.78-1.34,6.37-.67,3.19a1.49,1.49,0,0,0,.51,1.49,1.63,1.63,0,0,0,.75.33,5.68,5.68,0,0,0,.68,0l.81,0,3.25.07c2.17,0,4.34.16,6.51.23,4.34.23,8.68.48,13,1-4.35.53-8.69.83-13,1.09-2.18.1-4.35.24-6.52.3l-3.27.1-.81,0a7.74,7.74,0,0,1-.95,0,4.32,4.32,0,0,1-2.23-.91,4.38,4.38,0,0,1-1.57-4.33l.64-3.19,1.29-6.39,2.67-12.75.68-3.19.35-1.59.17-.79c0-.11.07-.3.13-.51a3.78,3.78,0,0,1,.21-.56,4.29,4.29,0,0,1,3.77-2.5l3.31,0c4.34,0,8.69.17,13,.26C591.86,292.1,600.55,292.38,609.23,292.89Z" transform="translate(-556.83 -280.3)"/><path class="cls-1" d="M620.6,328.87c.48-1,.06-2.14-.11-3.22l-.57-3.26-1.14-6.52-.55-3.26L618,311l-.13-.81a3,3,0,0,0-.19-.64,2.39,2.39,0,0,0-2-1.4l-3.24,0c-4.41.09-8.82.12-13.23.17l-6.62,0h-1.65a1,1,0,0,0-.74.33,1,1,0,0,0-.2.36c0,.06-.1.45-.15.69l-.33,1.62-2.72,12.95-.7,3.23-.08.4a3.43,3.43,0,0,0-.07.34,1.14,1.14,0,0,0,0,.45,1.13,1.13,0,0,0,1,.8l.82,0,1.65.07,3.3.17c2.2.13,4.4.09,6.6.17l6.61.16,6.61.23,3.31.11,1.65.07a3.44,3.44,0,0,0,1.62-.2,3.49,3.49,0,0,1-1.62.36l-1.65.07-3.31.12-6.61.22c-4.42.1-8.83.27-13.24.25l-3.32-.05-1.65,0h-.83a2.9,2.9,0,0,1-2.67-2,2.81,2.81,0,0,1-.1-1.19c0-.22,0-.34.08-.47l.08-.41.63-3.25,2.61-13,.34-1.62.09-.41a3.8,3.8,0,0,1,.13-.51,2.91,2.91,0,0,1,.62-1.06,3,3,0,0,1,2.2-1h1.65l6.62,0c4.41.06,8.82.08,13.23.17l1.65,0h.83c.28,0,.52,0,.89,0a3.71,3.71,0,0,1,3.06,2.34,3.86,3.86,0,0,1,.24,1l.09.82.19,1.65.38,3.28.7,6.58.35,3.29.15,1.66A3,3,0,0,1,620.6,328.87Z" transform="translate(-556.83 -280.3)"/><path class="cls-2" d="M569.44,292.89" transform="translate(-556.83 -280.3)"/><path class="cls-1" d="M580,290.44a9.24,9.24,0,0,1,.51-3.78,9.85,9.85,0,0,1,2-3.3,9.74,9.74,0,0,1,14.17,0,9.92,9.92,0,0,1,2,3.31,9.07,9.07,0,0,1,.5,3.78,10,10,0,0,0-3.09-6.54,9.54,9.54,0,0,0-13.09,0A10,10,0,0,0,580,290.44Z" transform="translate(-556.83 -280.3)"/><path class="cls-1" d="M595,305.46a5.71,5.71,0,0,1,1.49-4.53,6.16,6.16,0,0,1,9.07,0,5.64,5.64,0,0,1,1.49,4.53,6.43,6.43,0,0,0-2-4,5.93,5.93,0,0,0-8,0A6.43,6.43,0,0,0,595,305.46Z" transform="translate(-556.83 -280.3)"/><path class="cls-1" d="M600,305.46a5.67,5.67,0,0,1,1.49-4.53,6.16,6.16,0,0,1,9.07,0,5.67,5.67,0,0,1,1.49,4.53,6.43,6.43,0,0,0-2-4,5.93,5.93,0,0,0-8,0A6.43,6.43,0,0,0,600,305.46Z" transform="translate(-556.83 -280.3)"/><path class="cls-1" d="M574.12,290.44a9.24,9.24,0,0,1,.51-3.78,9.85,9.85,0,0,1,2-3.3,9.74,9.74,0,0,1,14.17,0,9.92,9.92,0,0,1,2,3.31,9.24,9.24,0,0,1,.51,3.78,10.08,10.08,0,0,0-3.1-6.54,9.54,9.54,0,0,0-13.09,0A10,10,0,0,0,574.12,290.44Z" transform="translate(-556.83 -280.3)"/><path class="cls-1" d="M571.81,295.88a62.49,62.49,0,0,1,1,7c.23,2.34.34,4.69.43,7s.07,4.7,0,7.06a65,65,0,0,1-.59,7.07,62.49,62.49,0,0,1-1-7c-.23-2.34-.34-4.69-.42-7s-.07-4.7,0-7.06A62.57,62.57,0,0,1,571.81,295.88Z" transform="translate(-556.83 -280.3)"/><path class="cls-1" d="M594.12,310a83.21,83.21,0,0,1,.8,18.21,73.24,73.24,0,0,1-.9-9.09A75.06,75.06,0,0,1,594.12,310Z" transform="translate(-556.83 -280.3)"/><path class="cls-2" d="M590.62,307.37" transform="translate(-556.83 -280.3)"/></svg>