<svg id="Capa_3" data-name="Capa 3" xmlns="http://www.w3.org/2000/svg" viewBox="0 0 51.85 51.94"><defs><style>.cls-1{fill:#fff;}</style></defs><title>IDIOMES BLANC</title><path class="cls-1" d="M441.77,292.5a24.7,24.7,0,0,1,4,18.06,25.73,25.73,0,0,1-3.3,9,25.35,25.35,0,0,1-6.47,7.18,25.91,25.91,0,0,1-18.46,5.12,26,26,0,0,1-23.26-27.24,25.88,25.88,0,0,1,7.94-17.43,25.1,25.1,0,0,1,8.11-5.27,25.64,25.64,0,0,1,9.41-1.85,24.75,24.75,0,0,1,17.2,6.81,25.26,25.26,0,0,0-17.15-5.33,24.07,24.07,0,0,0-22.68,23.19,23.66,23.66,0,0,0,20.76,24.31,24.1,24.1,0,0,0,26.46-18.77A25.19,25.19,0,0,0,441.77,292.5Z" transform="translate(-394.27 -280.07)"/><path class="cls-1" d="M420.61,280.77a6.14,6.14,0,0,1,3.35,1.15,10.33,10.33,0,0,1,1.35,1.2,11.89,11.89,0,0,1,1.15,1.4,24.47,24.47,0,0,1,3.21,6.45,51.05,51.05,0,0,1,2.58,14.27,57.83,57.83,0,0,1-.19,7.32,43.66,43.66,0,0,1-1.36,7.27,24.48,24.48,0,0,1-3.11,6.92,12.29,12.29,0,0,1-1.25,1.57,12.12,12.12,0,0,1-1.53,1.4,6.71,6.71,0,0,1-8.41,0,11.41,11.41,0,0,1-1.53-1.4,12.21,12.21,0,0,1-1.25-1.56,24.26,24.26,0,0,1-3.11-6.93,42.51,42.51,0,0,1-1.37-7.27,59.76,59.76,0,0,1-.19-7.32A51.06,51.06,0,0,1,411.54,291a24.2,24.2,0,0,1,3.22-6.45,10.89,10.89,0,0,1,1.14-1.4,10.33,10.33,0,0,1,1.35-1.2A6.15,6.15,0,0,1,420.61,280.77Zm0,0a6.16,6.16,0,0,0-3.33,1.2,9.4,9.4,0,0,0-1.31,1.21,10,10,0,0,0-1.12,1.4,23,23,0,0,0-2.91,6.52,40.75,40.75,0,0,0-1.3,7,56.44,56.44,0,0,0-.18,7.12A49.85,49.85,0,0,0,413,319a23.6,23.6,0,0,0,3,6,8.77,8.77,0,0,0,1,1.23,8.18,8.18,0,0,0,1.13,1,3.93,3.93,0,0,0,5,0,8.18,8.18,0,0,0,1.13-1,8.71,8.71,0,0,0,1-1.23,22.38,22.38,0,0,0,3-6,49.5,49.5,0,0,0,2.52-13.8,58.38,58.38,0,0,0-.18-7.12,40.77,40.77,0,0,0-1.31-7,22.73,22.73,0,0,0-2.91-6.52,10.66,10.66,0,0,0-1.11-1.4,9.48,9.48,0,0,0-1.32-1.21A6.15,6.15,0,0,0,420.61,280.77Z" transform="translate(-394.27 -280.07)"/><path class="cls-1" d="M439.92,290.56a1.53,1.53,0,0,1-.53,1.06,4.64,4.64,0,0,1-1,.72,13.14,13.14,0,0,1-2.26.94,33.92,33.92,0,0,1-4.77,1.08,67.91,67.91,0,0,1-9.76.85,65.75,65.75,0,0,1-9.81-.5,34,34,0,0,1-4.85-1,12.76,12.76,0,0,1-2.36-.94,5,5,0,0,1-1.1-.77,1.78,1.78,0,0,1,0-2.83,5,5,0,0,1,1.1-.77,12.76,12.76,0,0,1,2.36-.94,34,34,0,0,1,4.85-1,65.75,65.75,0,0,1,9.81-.5,67.91,67.91,0,0,1,9.76.85,32.6,32.6,0,0,1,4.77,1.09,12.35,12.35,0,0,1,2.26.93,5,5,0,0,1,1,.72A1.54,1.54,0,0,1,439.92,290.56Zm0,0c-.06-.86-.86-1.37-1.54-1.75a11.58,11.58,0,0,0-2.26-.9,32.37,32.37,0,0,0-4.77-1,64.75,64.75,0,0,0-9.74-.5,68.14,68.14,0,0,0-9.69.85,32.19,32.19,0,0,0-4.69,1.06,12.68,12.68,0,0,0-2.17.9c-.65.35-1.28.9-1.27,1.35s.62,1,1.27,1.34a11.93,11.93,0,0,0,2.17.9,32.19,32.19,0,0,0,4.69,1.06,66.71,66.71,0,0,0,9.69.85,63.46,63.46,0,0,0,9.74-.5,33.68,33.68,0,0,0,4.77-1,13,13,0,0,0,2.26-.9C439.06,291.92,439.86,291.41,439.92,290.56Z" transform="translate(-394.27 -280.07)"/><path class="cls-1" d="M444.87,305.7a1.64,1.64,0,0,1-.88,1.2,7.16,7.16,0,0,1-1.38.7,21.51,21.51,0,0,1-3,.9,57.13,57.13,0,0,1-6.1,1,118.37,118.37,0,0,1-12.35.82,109.37,109.37,0,0,1-12.4-.47,58.66,58.66,0,0,1-6.15-1,22.39,22.39,0,0,1-3-.89,7.74,7.74,0,0,1-1.47-.73,3.37,3.37,0,0,1-.7-.58,1.45,1.45,0,0,1,0-2,3.13,3.13,0,0,1,.7-.58,7.74,7.74,0,0,1,1.47-.73,22.34,22.34,0,0,1,3-.88,53.84,53.84,0,0,1,6.15-1,107.11,107.11,0,0,1,12.4-.48,115.71,115.71,0,0,1,12.35.83,54.72,54.72,0,0,1,6.1,1,21.48,21.48,0,0,1,3,.89,7.78,7.78,0,0,1,1.38.7A1.64,1.64,0,0,1,444.87,305.7Zm0,0a1.62,1.62,0,0,0-.89-1.18,7.08,7.08,0,0,0-1.38-.68,21.78,21.78,0,0,0-3-.86,57.33,57.33,0,0,0-6.1-1,110.57,110.57,0,0,0-12.34-.46,112.07,112.07,0,0,0-12.3.82,58.11,58.11,0,0,0-6,1,21,21,0,0,0-2.89.88,7.08,7.08,0,0,0-1.29.65c-.39.24-.67.59-.66.78s.27.55.66.79a7.08,7.08,0,0,0,1.29.65,21,21,0,0,0,2.89.87,55.59,55.59,0,0,0,6,1,112.07,112.07,0,0,0,12.3.82,108.23,108.23,0,0,0,12.34-.47,54.86,54.86,0,0,0,6.1-1,21.78,21.78,0,0,0,3-.86,7.69,7.69,0,0,0,1.38-.68A1.64,1.64,0,0,0,444.87,305.7Z" transform="translate(-394.27 -280.07)"/><path class="cls-1" d="M439.44,319.91a1.58,1.58,0,0,1-.53,1.07,5,5,0,0,1-1,.72,13.1,13.1,0,0,1-2.26.93,32.31,32.31,0,0,1-4.77,1.09,67.51,67.51,0,0,1-9.74.85,65.54,65.54,0,0,1-9.8-.5,33.63,33.63,0,0,1-4.84-1,12.76,12.76,0,0,1-2.36-.94,5.62,5.62,0,0,1-1.1-.77,2.05,2.05,0,0,1-.69-1.42,2,2,0,0,1,.69-1.41,5,5,0,0,1,1.1-.77,13,13,0,0,1,2.35-.94,34,34,0,0,1,4.85-1,63,63,0,0,1,9.8-.5,67.51,67.51,0,0,1,9.74.85,32.31,32.31,0,0,1,4.77,1.09,12.35,12.35,0,0,1,2.26.93,5,5,0,0,1,1,.72A1.57,1.57,0,0,1,439.44,319.91Zm0,0c-.06-.85-.87-1.36-1.54-1.74a12.28,12.28,0,0,0-2.26-.91,33.68,33.68,0,0,0-4.77-1,64.48,64.48,0,0,0-9.72-.5,66.57,66.57,0,0,0-9.68.85,32.19,32.19,0,0,0-4.69,1.06,12.58,12.58,0,0,0-2.16.9c-.65.35-1.28.9-1.26,1.34s.61,1,1.26,1.35a11.83,11.83,0,0,0,2.16.9,32.19,32.19,0,0,0,4.69,1.06,66.57,66.57,0,0,0,9.68.85,64.48,64.48,0,0,0,9.72-.5,32.37,32.37,0,0,0,4.77-1,11.58,11.58,0,0,0,2.26-.9C438.57,321.28,439.38,320.77,439.44,319.91Z" transform="translate(-394.27 -280.07)"/></svg>