<?xml version="1.0" encoding="utf-8"?>
<!-- Generator: Adobe Illustrator 24.0.2, SVG Export Plug-In . SVG Version: 6.00 Build 0)  -->
<svg version="1.1" id="Capa_1" xmlns="http://www.w3.org/2000/svg" xmlns:xlink="http://www.w3.org/1999/xlink" x="0px" y="0px"
	 viewBox="0 0 1920 1080" style="enable-background:new 0 0 1920 1080;" xml:space="preserve">
<style type="text/css">
	.st0{fill:#FFFFFF;}
</style>
<g>
	<path class="st0" d="M965.7,443.9c-10.2,12.2-19.5,28.1-27.4,47.3c-12.1,29.2-17.5,57.2-18.5,62.9c-0.1,0.6,0.3,1.2,0.9,1.4
		c0.6,0.2,1.2-0.1,1.4-0.7c1.7-3.9,9.2-19.2,26.3-34.3c16.7-14.8,46-32.3,92.6-34.9c-0.3-0.7-0.6-1.4-0.9-2.1
		c-19,1.1-36.6,4.7-52.3,10.8c-15.5,5.9-29.2,14.2-40.9,24.7c-5.3,4.7-9.6,9.3-13.2,13.7c3.5-5.3,7.9-11.1,13.4-16.9
		c16-17.1,44.1-37.5,89-41.2c-0.3-0.7-0.7-1.4-1-2.1c-18.5,1.6-35.6,6.1-50.9,13.4c-14.6,7-27.6,16.6-38.7,28.5
		c-4.6,4.9-8.4,9.8-11.7,14.4c3.2-5.6,7.1-11.7,11.9-17.7c15.1-19.3,41.8-42.6,84.2-47.6c-0.4-0.7-0.8-1.3-1.2-2
		c-17.5,2.2-33.7,7.5-48.2,16c-13.7,8-26,18.9-36.5,32.2c-3.9,4.9-7.2,9.8-10,14.5c2.9-5.7,6.3-11.8,10.4-18
		c14.2-21.3,38.9-47.1,78.1-53.6c-0.5-0.6-1-1.3-1.5-1.9c-16.1,2.8-30.9,9-44.3,18.4c-12.9,9.1-24.4,21.2-34.2,36
		c-3.2,4.8-6,9.6-8.4,14.2c2.5-5.7,5.5-11.8,8.9-17.8c13-23,35.5-50.9,70.8-59.4c-0.5-0.6-1.1-1.2-1.7-1.8
		c-14.1,3.6-27.3,10.4-39.1,20.4c-12,10.1-22.7,23.5-31.9,39.8c-2.6,4.6-4.9,9.1-7,13.5c2.2-5.6,4.7-11.4,7.5-17.3
		c11.7-24.2,31.7-53.6,62.4-64.5c-0.6-0.6-1.2-1.1-1.8-1.6c-11.8,4.3-22.8,11.6-32.9,21.7c-11.1,11.2-21.1,25.8-29.7,43.5
		c-2,4.2-3.9,8.4-5.6,12.5c1.8-5.3,3.9-10.8,6.1-16.3c10.3-24.9,27.4-55,53.3-68.5c-0.6-0.5-1.3-1-1.9-1.4
		C982.4,427,973.8,434.3,965.7,443.9z"/>
	<path class="st0" d="M847.4,443.9c10.2,12.2,19.5,28.1,27.4,47.3c12.1,29.2,17.5,57.2,18.5,62.9c0.1,0.6-0.3,1.2-0.9,1.4
		c-0.6,0.2-1.2-0.1-1.4-0.7c-1.7-3.9-9.2-19.2-26.3-34.3c-16.7-14.8-46-32.3-92.6-34.9c0.3-0.7,0.6-1.4,0.9-2.1
		c19,1.1,36.6,4.7,52.3,10.8c15.5,5.9,29.2,14.2,40.9,24.7c5.3,4.7,9.6,9.3,13.2,13.7c-3.5-5.3-7.9-11.1-13.4-16.9
		c-16-17.1-44.1-37.5-89-41.2c0.3-0.7,0.7-1.4,1-2.1c18.5,1.6,35.6,6.1,50.9,13.4c14.6,7,27.6,16.6,38.7,28.5
		c4.6,4.9,8.4,9.8,11.7,14.4c-3.2-5.6-7.1-11.7-11.9-17.7c-15.1-19.3-41.8-42.6-84.2-47.6c0.4-0.7,0.8-1.3,1.2-2
		c17.5,2.2,33.7,7.5,48.2,16c13.7,8,26,18.9,36.5,32.2c3.9,4.9,7.2,9.8,10,14.5c-2.9-5.7-6.3-11.8-10.4-18
		c-14.2-21.3-38.9-47.1-78.1-53.6c0.5-0.6,1-1.3,1.5-1.9c16.1,2.8,30.9,9,44.3,18.4c12.9,9.1,24.4,21.2,34.2,36
		c3.2,4.8,6,9.6,8.4,14.2c-2.5-5.7-5.5-11.8-8.9-17.8c-13-23-35.5-50.9-70.8-59.4c0.5-0.6,1.1-1.2,1.7-1.8
		c14.1,3.6,27.3,10.4,39.1,20.4c12,10.1,22.7,23.5,31.9,39.8c2.6,4.6,4.9,9.1,7,13.5c-2.2-5.6-4.7-11.4-7.5-17.3
		c-11.7-24.2-31.7-53.6-62.4-64.5c0.6-0.6,1.2-1.1,1.8-1.6c11.8,4.3,22.8,11.6,32.9,21.7c11.1,11.2,21.1,25.8,29.7,43.5
		c2,4.2,3.9,8.4,5.6,12.5c-1.8-5.3-3.9-10.8-6.1-16.3c-10.3-24.9-27.4-55-53.3-68.5c0.6-0.5,1.3-1,1.9-1.4
		C830.7,427,839.4,434.3,847.4,443.9z"/>
	<path class="st0" d="M944.7,399.4c-0.1,0-0.1,0-0.2-0.1c-2.3-0.6-4.6-1.2-6.9-1.7c-0.2,0-0.4-0.1-0.7-0.1c-0.7-0.2-1.4-0.3-2.1-0.4
		c-0.1,0-0.2,0-0.3-0.1c-1.4-0.3-2.8-0.5-4.1-0.8c-0.3,0-0.6-0.1-0.8-0.1c-0.7-0.1-1.3-0.2-2-0.3c-0.3,0-0.6-0.1-1-0.1
		c-1.2-0.2-2.5-0.3-3.8-0.5c-0.3,0-0.5-0.1-0.8-0.1c-0.7-0.1-1.3-0.1-2-0.2c-0.4,0-0.7-0.1-1.1-0.1c-0.7-0.1-1.3-0.1-2-0.2
		c-0.1,0-0.2,0-0.3,0c-1.4-0.1-2.8-0.2-4.2-0.2c-0.4,0-0.7,0-1.1,0c-0.7,0-1.3,0-2-0.1c-0.4,0-0.7,0-1.1,0c-0.6,0-1.2,0-1.8,0
		c-0.6,0-1.2,0-1.8,0c-0.4,0-0.7,0-1.1,0c-0.7,0-1.3,0-2,0.1c-0.4,0-0.7,0-1.1,0c-1.4,0.1-2.8,0.1-4.2,0.2c-0.1,0-0.2,0-0.3,0
		c-0.7,0-1.3,0.1-2,0.2c-0.4,0-0.7,0.1-1.1,0.1c-0.7,0.1-1.3,0.1-2,0.2c-0.3,0-0.5,0.1-0.8,0.1c-1.3,0.1-2.5,0.3-3.8,0.5
		c-0.3,0-0.6,0.1-1,0.1c-0.7,0.1-1.3,0.2-2,0.3c-0.3,0-0.6,0.1-0.8,0.1c-1.4,0.2-2.8,0.5-4.1,0.8c-0.1,0-0.2,0-0.3,0.1
		c-0.7,0.1-1.4,0.3-2.1,0.4c-0.2,0-0.4,0.1-0.7,0.1c-2.3,0.5-4.6,1.1-6.9,1.7c-0.1,0-0.1,0-0.2,0.1c-13.7,3.8-26.6,9.5-38.3,16.9
		c40,21.2,65.7,91.9,74.9,165.9c0.1,0.9,0.9,1.4,1.6,1.4c0.7,0,1.5-0.5,1.6-1.4c9.2-73.9,34.9-144.7,74.9-165.9
		C971.3,408.9,958.4,403.2,944.7,399.4z M922.9,438.3c-0.5,8.1-7.1,14.7-15.2,15.2c-0.4,0-0.7,0-1.1,0c-0.4,0-0.7,0-1.1,0
		c-8.1-0.5-14.7-7.1-15.2-15.2c-0.6-9.5,6.9-17.4,16.3-17.4C915.9,420.9,923.5,428.8,922.9,438.3z"/>
</g>
<g>
	<path class="st0" d="M650.3,647.4l-3.8,0l0,0h-4.9l0,0l-5.5,0c-1.1,0-1.7,1.3-1,2.1c1.8,2,3.3,5.9,1,13.1l0,0l-20,56l-20-55.9
		c-2.6-7.1-1-11,0.9-13.1c0.7-0.8,0.1-2.1-1-2.1l-5.3,0l0,0H579l0,0l-3.8,0c-1.3,0-1.8,1.7-0.7,2.4c3.2,2.1,7.2,5.8,9.7,12.4
		l26.5,74.1c0.3,0.9,1.1,1.4,2,1.4h0c0.9,0,1.7-0.6,2-1.4l3.9-10.8v0l22.7-63.6c2.5-6.4,6.5-10,9.6-12.1
		C652.1,649.1,651.6,647.4,650.3,647.4z"/>
	<circle class="st0" cx="973.9" cy="692.6" r="7.2"/>
	<path class="st0" d="M971.6,723.8c-0.2,0.3-0.4,0.5-0.6,0.7c-5,5.5-12.1,8.5-19.5,8.5h-10.4c-3.5-0.1-6.2-2.9-6.2-6.4v-63
		c0-7.9,1.8-12.1,3.3-14.2c0.2-0.3,0.3-0.7,0.2-1c-0.1-0.6-0.6-1-1.3-1h-2.3h-11h-2.3c-1,0-1.6,1.2-1,2c1.5,2.1,3.3,6.3,3.3,14.2
		v57.8c0,7.9-1.8,12.1-3.3,14.2c-0.6,0.8,0,2,1,2l2.3,0h11h37.7c0.1,0,0.2-0.1,0.2-0.2c0,0,0.6-7.6,1-12.7c0-0.1,0-0.2,0-0.2
		C973.8,723.4,972.4,722.9,971.6,723.8z"/>
	<path class="st0" d="M1055.6,723.8c-0.2,0.3-0.4,0.5-0.6,0.7c-5,5.5-12.1,8.5-19.5,8.5H1025c-3.5-0.1-6.2-2.9-6.2-6.4v-63
		c0-7.9,1.8-12.1,3.3-14.2c0.2-0.3,0.3-0.7,0.2-1c-0.1-0.6-0.6-1-1.3-1h-2.3h-11h-2.3c-1,0-1.6,1.2-1,2c1.5,2.1,3.3,6.3,3.3,14.2
		v57.8c0,7.9-1.8,12.1-3.3,14.2c-0.6,0.8,0,2,1,2l2.3,0h11h37.7c0.1,0,0.2-0.1,0.2-0.2c0,0,0.6-7.6,1-12.7c0-0.1,0-0.2,0-0.2
		C1057.7,723.4,1056.3,722.9,1055.6,723.8z"/>
	<path class="st0" d="M778.7,723.8c-0.2,0.3-0.4,0.5-0.6,0.7c-5,5.5-12.1,8.5-19.5,8.5h-10.4c-3.5-0.1-6.2-2.9-6.2-6.4v-63
		c0-7.9,1.8-12.1,3.3-14.2c0.2-0.3,0.3-0.7,0.2-1c-0.1-0.6-0.6-1-1.3-1h-2.3h-11h-2.3c-1,0-1.6,1.2-1,2c1.5,2.1,3.3,6.3,3.3,14.2
		v57.8c0,7.9-1.8,12.1-3.3,14.2c-0.6,0.8,0,2,1,2l2.3,0h11h37.7c0.1,0,0.2-0.1,0.2-0.2c0,0,0.6-7.6,1-12.7c0-0.1,0-0.2,0-0.2
		C780.8,723.4,779.4,722.9,778.7,723.8z"/>
	<path class="st0" d="M1086.8,649.5c0.6-0.8,0-2-1-2h-2.3h-11h-2.3c-1,0-1.6,1.2-1,2c1.5,2.1,3.3,6.3,3.3,14.2v57.8
		c0,7.9-1.8,12.1-3.3,14.2c-0.6,0.8,0,2,1,2h2.3h11h2.3c1,0,1.6-1.2,1-2c-1.5-2.1-3.3-6.3-3.3-14.2v-57.8
		C1083.4,655.8,1085.2,651.6,1086.8,649.5z"/>
	<path class="st0" d="M1129.2,652.1c7.5,0,14.7,3,19.6,8.6c0.2,0.2,0.4,0.4,0.6,0.7c0.8,0.9,2.3,0.3,2.2-0.9c0,0,0,0,0,0
		c0,0,0,0,0,0c-0.4-5.1-1-12.7-1-12.7c0-0.1-0.1-0.2-0.2-0.2h-37.7h-11h-2.3c-0.8,0-1.3,0.7-1.3,1.4c0,0.2,0.1,0.5,0.2,0.7
		c1.5,2.1,3.3,6.3,3.3,14.2v57.8c0,7.9-1.8,12.1-3.3,14.2c-0.2,0.2-0.2,0.5-0.2,0.7c0,0.7,0.5,1.4,1.3,1.4h2.3h11h37.7
		c0.1,0,0.2-0.1,0.2-0.2l1-12.7c0,0,0,0,0,0l0,0c0.1-1.2-1.4-1.9-2.2-0.9c-0.2,0.2-0.4,0.4-0.6,0.6c-5,5.6-12.2,8.6-19.6,8.6h-16.6
		v-33.9c0-2.4,1.9-4.3,4.3-4.3h2.5h3.6c7.9,0,12.1,1.8,14.2,3.3c0.8,0.6,2,0,2-1v-2.3h0v0h0v-4.6V688c0,0,0,0,0,0v0c0-1-1.2-1.6-2-1
		c-2.1,1.5-6.3,3.3-14.2,3.3h-3.6h-2.7c-2.3-0.1-4.1-2-4.1-4.3v-33.9H1129.2z"/>
	<path class="st0" d="M886.8,652.1c7.5,0,14.7,3,19.6,8.6c0.2,0.2,0.4,0.4,0.6,0.7c0.8,0.9,2.3,0.3,2.2-0.9c-0.4-5.1-1-12.7-1-12.7
		c0-0.1-0.1-0.2-0.2-0.2h-37.7h-11h-2.3c-1,0-1.6,1.2-1,2c1.5,2.1,3.3,6.3,3.3,14.2v57.8c0,7.9-1.8,12.1-3.3,14.2c-0.6,0.8,0,2,1,2
		h2.3h11h37.7c0.1,0,0.2-0.1,0.2-0.2l1-12.7c0.1-1.2-1.4-1.9-2.2-0.9c-0.2,0.2-0.3,0.4-0.5,0.6c-5,5.6-12.2,8.7-19.7,8.7h-16.6
		v-33.9c0-2.4,1.9-4.3,4.3-4.3h2.5h3.6c7.9,0,12.1,1.8,14.2,3.3c0.8,0.6,2,0,2-1v-2.3c0,0,0,0-0.1,0h0.1v-4.6V688c0-1-1.2-1.6-2-1
		c-2.1,1.5-6.3,3.3-14.2,3.3H877h-2.5c-2.4,0-4.3-1.9-4.3-4.3v-33.9H886.8z"/>
	<path class="st0" d="M693.8,652c7.5,0,14.7,3,19.6,8.6c0.2,0.2,0.4,0.4,0.6,0.7c0.8,0.9,2.3,0.3,2.2-0.9c-0.4-5.1-1-12.7-1-12.7
		c0-0.1-0.1-0.2-0.2-0.2h-37.7h-11l-2.3,0c-1,0-1.6,1.2-1,2c1.5,2.1,3.3,6.3,3.3,14.2v57.8c0,7.9-1.8,12.1-3.3,14.2
		c-0.6,0.8,0,2,1,2h2.3h11H715c0.1,0,0.2-0.1,0.2-0.2l1-12.7c0.1-1.2-1.4-1.9-2.2-0.9c-0.2,0.2-0.3,0.4-0.5,0.6
		c-5,5.6-12.2,8.7-19.7,8.7h-16.6v-33.9c0-2.4,1.9-4.3,4.3-4.3h2.5h3.6c7.9,0,12.1,1.8,14.2,3.3c0.8,0.6,2,0,2-1v-2.3v-4.6v-2.3
		c0-1-1.2-1.6-2-1c-2.1,1.5-6.3,3.3-14.2,3.3H684h-2.5c-2.4,0-4.3-1.9-4.3-4.3V652H693.8z"/>
	<path class="st0" d="M821.6,686.9c-11.1-5.8-18-11.3-18-20.6c0-7,4.5-14.9,15-14.9c7.9,0,14.9,6.7,19,11.7c1.1,1.3,3.2,0.4,3-1.3
		c-0.6-5-1-8.8-1.3-12.2c0-0.2-0.2-0.4-0.4-0.4c-3-0.6-10.1-2.5-17.4-2.5c-17.7,0-27.6,11.3-27.6,23.3c0,12.6,8.3,18.8,22.3,26.5
		c11.8,6.5,17.8,11,17.8,21.4c0,8.8-6.8,15.4-16.4,15.4c-9.2,0-17.9-8.6-22.7-14.5c-1.1-1.3-3.2-0.3-3,1.4
		c0.8,5.4,1.9,10.7,2.6,13.4c0,0.1,0.1,0.2,0.3,0.3c5.5,2.1,12.3,4.4,20.3,4.4c17.3,0,29.5-10.8,29.5-25
		C844.6,700.6,837.7,695.3,821.6,686.9z"/>
	<path class="st0" d="M1238.5,735.3c-0.3-0.2-0.7-0.5-1.3-0.9c-8.6-6-16-13.7-21.5-22.7l-6.4-10.3c-1.2-1.9-3.9-5.4-6.9-7.5
		c-3-2.2-6.4-3.3-9-3.7c0.1,0,0.3,0,0.4,0c0.5,0,0.9-0.1,1.4-0.1c0.4,0,0.7-0.1,1-0.1c0.4-0.1,0.9-0.2,1.3-0.2
		c0.3-0.1,0.7-0.1,1-0.2c0.4-0.1,0.9-0.2,1.3-0.3c0.3-0.1,0.7-0.2,1-0.3c0.4-0.1,0.8-0.3,1.2-0.4c0.3-0.1,0.6-0.3,0.9-0.4
		c0.4-0.2,0.8-0.3,1.1-0.5c0.3-0.2,0.6-0.3,0.9-0.5c0.4-0.2,0.7-0.4,1.1-0.6c0.3-0.2,0.6-0.4,0.9-0.6c0.3-0.2,0.7-0.4,1-0.7
		c0.3-0.2,0.5-0.4,0.8-0.6c0.3-0.2,0.6-0.5,0.9-0.7c0.3-0.2,0.5-0.5,0.8-0.7c0.3-0.3,0.5-0.5,0.8-0.8c0.2-0.3,0.5-0.5,0.7-0.8
		c0.2-0.3,0.5-0.5,0.7-0.8c0.2-0.3,0.4-0.6,0.6-0.9c0.2-0.3,0.4-0.6,0.6-0.8c0.2-0.3,0.4-0.7,0.5-1c0.2-0.3,0.3-0.6,0.5-0.9
		c0.2-0.4,0.3-0.7,0.5-1.1c0.1-0.3,0.2-0.6,0.3-0.9c0.1-0.4,0.2-0.8,0.4-1.2c0.1-0.3,0.2-0.5,0.2-0.8c0.1-0.5,0.2-0.9,0.2-1.4
		c0-0.2,0.1-0.5,0.1-0.7c0.1-0.7,0.1-1.4,0.1-2.1c0-11.8-11.1-21.4-24.7-21.4h-25.5h-2.3c-0.1,0-0.3,0-0.4,0.1
		c-0.2,0.1-0.4,0.2-0.6,0.4c-0.1,0.1-0.1,0.2-0.2,0.3c-0.1,0.2-0.2,0.4-0.1,0.7s0.1,0.5,0.2,0.7c0.4,0.5,0.8,1.2,1.2,2
		c0.2,0.4,0.4,0.9,0.6,1.3c0.4,1,0.7,2.1,1,3.4c0.4,2,0.7,4.4,0.7,7.4v57.8c0,3.9-0.5,7-1.1,9.2c-0.3,1.1-0.7,2.1-1.1,2.9
		c-0.4,0.8-0.8,1.5-1.2,2c-0.2,0.2-0.2,0.4-0.2,0.7c0,0.7,0.5,1.4,1.3,1.4h2.3h11h2.3c0.9,0,1.5-0.9,1.2-1.7c0-0.1-0.1-0.2-0.2-0.3
		c-1-1.3-2-3.5-2.7-6.8c-0.1-0.7-0.2-1.4-0.3-2.1c-0.2-1.5-0.3-3.3-0.3-5.2v-69.4h8.9c2.1,0,4.1,0.3,6,0.9c3.2,1,6.1,2.8,8.4,5.4
		c0.4,0.4,0.7,0.9,1.1,1.3c1.3,1.7,2.2,3.6,2.9,5.7c0.2,0.8,0.4,1.5,0.6,2.3c0.2,1.1,0.3,2.2,0.3,3.3c0,0,0,0.1,0,0.1
		c0,4.9-1.8,9.3-4.8,12.7c-0.4,0.4-0.8,0.8-1.2,1.2c-1.6,1.6-3.6,2.8-5.7,3.7c-1.6,0.7-3.3,1.1-5,1.4c5.7,4.3,10.5,9.6,14,15.8
		c6.9,11.8,12.9,31.8,24.3,31.8h10.7C1239.2,737.7,1239.6,736,1238.5,735.3z"/>
</g>
</svg>
