<svg id="Capa_4" data-name="Capa 4" xmlns="http://www.w3.org/2000/svg" viewBox="0 0 63.75 24.31"><defs><style>.cls-1{fill:#fff;}</style></defs><title>MENU BLANC</title><circle class="cls-1" cx="31.88" cy="12.2" r="4.08"/><path class="cls-1" d="M282,292.65V296a2.38,2.38,0,0,0,2.39,2.38h21.25a2.45,2.45,0,0,0,1.94-1,8,8,0,0,1,12.6,0,2.47,2.47,0,0,0,1.94,1h21.26a2.38,2.38,0,0,0,2.38-2.38v-3.3a2.38,2.38,0,0,0-2.38-2.38h-59A2.38,2.38,0,0,0,282,292.65Z" transform="translate(-281.99 -290.27)"/><path class="cls-1" d="M345.75,312.17v-3.25a2.41,2.41,0,0,0-2.41-2.41H322.1a2.42,2.42,0,0,0-1.92,1,8,8,0,0,1-12.62,0,2.41,2.41,0,0,0-1.91-1H284.4a2.41,2.41,0,0,0-2.41,2.41v3.25a2.41,2.41,0,0,0,2.41,2.41h58.94A2.41,2.41,0,0,0,345.75,312.17Z" transform="translate(-281.99 -290.27)"/></svg>