<svg id="Capa_2" data-name="Capa 2" xmlns="http://www.w3.org/2000/svg" viewBox="0 0 37.53 50.1"><defs><style>.cls-1{fill:#fff;}</style></defs><title>USER BLANC</title><path class="cls-1" d="M515.65,284.23a12.45,12.45,0,0,1-8.28,21.26,12.47,12.47,0,0,1-9.33-3.65,12.43,12.43,0,0,1-3.66-9.33,12.37,12.37,0,0,1,4.19-8.81,12.48,12.48,0,0,1,17.08.53Zm0,0a11.13,11.13,0,0,0-3.82-2.49,11.34,11.34,0,0,0-4.46-.73,11,11,0,1,0,11.5,11.5A11.06,11.06,0,0,0,515.65,284.23Z" transform="translate(-488.53 -280.58)"/><path class="cls-1" d="M488.69,330.68a18.52,18.52,0,0,1,.34-6.62,18.89,18.89,0,0,1,2.75-6.21,19.42,19.42,0,0,1,4.74-5,20.22,20.22,0,0,1,13.07-4,20.17,20.17,0,0,1,6.74,1.48,18.59,18.59,0,0,1,9.73,8.93,23.27,23.27,0,0,0-10.51-6.73,21.19,21.19,0,0,0-12,.06,20.84,20.84,0,0,0-9.93,6.66,21.37,21.37,0,0,0-3.23,5.28A26.55,26.55,0,0,0,488.69,330.68Z" transform="translate(-488.53 -280.58)"/></svg>