<svg width="33" height="1780" viewBox="0 0 33 1780" fill="none" xmlns="http://www.w3.org/2000/svg">
        <path
            d="M10 1779.5V955.794C10.0002 951.61 13.9004 945.049 20.0479 941.463L20.0488 941.462C27.2976 937.251 31.9004 929.414 31.9004 920.995C31.9003 912.574 27.3952 904.74 20.0518 900.529L20.0479 900.527C13.9002 896.941 10 890.38 10 883.295V0.499023H9V883.295C9 890.714 13.0024 897.652 19.5508 901.464C26.5037 905.453 30.9003 913.016 30.9004 920.995C30.9004 929.073 26.6048 936.542 19.5459 940.531H19.5449C13.0051 944.241 9.00016 951.273 9 958.695V1779.5H10Z"
            fill="white" stroke="white" />
        <path
            d="M9.5 911.6C14.7467 911.6 19 915.853 19 921.1C19 926.347 14.7467 930.6 9.5 930.6C4.25329 930.6 0 926.347 0 921.1C0 915.853 4.25329 911.6 9.5 911.6Z"
            fill="white" />
    </svg>